<?xml version="1.0" encoding="utf-8"?>
<!-- Generator: Adobe Illustrator 23.0.2, SVG Export Plug-In . SVG Version: 6.00 Build 0)  -->
<svg version="1.1" xmlns="http://www.w3.org/2000/svg" xmlns:xlink="http://www.w3.org/1999/xlink" x="0px" y="0px"
	 viewBox="0 0 363.47 120.13" style="enable-background:new 0 0 363.47 120.13;" xml:space="preserve">
<style type="text/css">
	.st0{fill:#3E3E3E;}
	.st1{fill:#3A8DBA;}
	.st2{fill:#3A8DBA;stroke:#4D4D4D;stroke-miterlimit:10;}
	.st3{font-family:'MyriadPro-Regular';}
	.st4{font-size:33px;}
</style>
<g id="Calque_1">
	<g>
		<g>
			<path class="st0" d="M36.85,34.09c0-5.87,1.94-10.72,5.83-14.55c3.88-3.83,8.49-5.74,13.82-5.74c5.89,0,10.77,1.92,14.62,5.77
				c3.85,3.85,5.78,8.7,5.78,14.58c0,5.83-1.91,10.68-5.72,14.53c-3.81,3.86-8.62,5.78-14.41,5.78c-5.79,0-10.56-1.92-14.3-5.75
				C38.72,44.88,36.85,40.01,36.85,34.09z M56.89,21.74c-3.33-0.06-6.01,1.09-8.05,3.45c-2.04,2.36-3.06,5.41-3.06,9.14
				c0,3.53,1.04,6.46,3.12,8.78c2.08,2.32,4.7,3.48,7.87,3.48c3.33,0,6.02-1.15,8.07-3.44c2.05-2.29,3.07-5.31,3.07-9.07
				c0-3.69-1-6.66-3.01-8.9C62.89,22.95,60.22,21.8,56.89,21.74z"/>
			<path class="st1" d="M56.77,55.47c-6.05,0-11.1-2.04-15.02-6.05c-3.92-4.01-5.9-9.16-5.9-15.32c0-6.12,2.06-11.26,6.13-15.26
				c4.06-4,8.95-6.02,14.52-6.02c6.14,0,11.3,2.04,15.33,6.06c4.03,4.02,6.08,9.17,6.08,15.29c0,6.08-2.02,11.2-6.01,15.23
				C67.9,53.42,62.81,55.47,56.77,55.47z M56.49,14.81c-5.03,0-9.45,1.83-13.12,5.45c-3.67,3.61-5.53,8.27-5.53,13.83
				c0,5.62,1.79,10.3,5.33,13.92c3.53,3.62,8.1,5.45,13.59,5.45c5.49,0,10.1-1.85,13.7-5.49c3.6-3.64,5.43-8.29,5.43-13.83
				c0-5.57-1.85-10.24-5.49-13.87C66.77,16.65,62.09,14.81,56.49,14.81z M56.77,47.6c-3.45,0-6.35-1.28-8.62-3.81
				c-2.24-2.5-3.37-5.68-3.37-9.45c0-3.96,1.11-7.26,3.3-9.8c2.23-2.59,5.22-3.82,8.83-3.8c3.6,0.07,6.54,1.34,8.73,3.78
				c2.17,2.42,3.27,5.64,3.27,9.57c0,3.99-1.12,7.26-3.33,9.73C63.34,46.33,60.38,47.6,56.77,47.6z M56.64,22.74
				c-2.93,0-5.24,1.02-7.04,3.11c-1.87,2.16-2.81,5.02-2.81,8.49c0,3.31,0.94,5.96,2.86,8.11c1.9,2.12,4.23,3.15,7.13,3.15
				c3.06,0,5.46-1.01,7.32-3.1c1.87-2.09,2.82-4.92,2.82-8.4c0-3.42-0.93-6.19-2.76-8.23c-1.83-2.04-4.21-3.06-7.28-3.12
				C56.79,22.74,56.71,22.74,56.64,22.74z"/>
		</g>
		<g>
			<path class="st0" d="M98.37,28.01v3.78h0.12c1.13-1.51,2.31-2.62,3.53-3.32c1.22-0.7,2.69-1.04,4.4-1.04
				c3.11,0,5.76,1.36,7.95,4.09c2.19,2.72,3.28,6.04,3.28,9.93c0,3.57-1.06,6.63-3.19,9.19c-2.13,2.55-4.66,3.83-7.58,3.83
				c-1.8,0-3.3-0.37-4.51-1.12s-2.46-1.94-3.75-3.57h-0.12v15.68h-7.87V28.01H98.37z M109.54,41.39c0-1.7-0.54-3.15-1.63-4.38
				c-1.09-1.22-2.39-1.83-3.91-1.83c-1.49,0-2.77,0.6-3.81,1.8c-1.05,1.2-1.57,2.67-1.57,4.4c0,1.68,0.55,3.11,1.65,4.3
				c1.1,1.19,2.44,1.79,4.01,1.79c1.53,0,2.79-0.56,3.78-1.7C109.05,44.65,109.54,43.19,109.54,41.39z"/>
			<path class="st1" d="M99.49,66.46h-9.87V27.01h9.75v2.25c0.7-0.68,1.42-1.23,2.15-1.65c1.37-0.78,3.02-1.18,4.9-1.18
				c3.41,0,6.35,1.5,8.73,4.46c2.33,2.89,3.51,6.45,3.51,10.56c0,3.8-1.15,7.1-3.43,9.83c-2.32,2.78-5.13,4.19-8.35,4.19
				c-1.97,0-3.67-0.43-5.04-1.27c-0.77-0.47-1.56-1.12-2.35-1.91V66.46z M91.62,64.46h5.87V48.77h1.61l0.3,0.38
				c1.21,1.54,2.39,2.66,3.49,3.34c1.05,0.64,2.39,0.97,3.99,0.97c2.64,0,4.87-1.13,6.82-3.47c1.97-2.36,2.96-5.23,2.96-8.55
				c0-3.64-1.03-6.77-3.06-9.3c-2.01-2.5-4.35-3.71-7.17-3.71c-1.53,0-2.85,0.31-3.91,0.91c-1.1,0.63-2.18,1.65-3.22,3.04l-0.3,0.4
				h-1.62v-3.78h-5.75V64.46z M104.27,48.47c-1.86,0-3.46-0.71-4.75-2.11c-1.27-1.38-1.92-3.05-1.92-4.98
				c0-1.98,0.61-3.68,1.82-5.06c1.24-1.42,2.78-2.14,4.57-2.14c1.8,0,3.37,0.73,4.65,2.17c1.25,1.41,1.89,3.1,1.89,5.04
				c0,2.04-0.58,3.74-1.73,5.05C107.63,47.79,106.1,48.47,104.27,48.47z M104,36.18c-1.2,0-2.2,0.48-3.06,1.46
				c-0.89,1.02-1.33,2.25-1.33,3.75c0,1.43,0.45,2.61,1.38,3.62c0.91,0.99,1.98,1.46,3.28,1.46c1.24,0,2.23-0.44,3.03-1.35
				c0.83-0.95,1.24-2.17,1.24-3.73c0-1.45-0.45-2.67-1.38-3.71C106.26,36.67,105.23,36.18,104,36.18z"/>
		</g>
		<g>
			<path class="st0" d="M149.27,31.61L144,34.82c-1.52-1.53-2.94-2.3-4.26-2.3c-0.65,0-1.21,0.18-1.67,0.54s-0.7,0.81-0.7,1.33
				c0,0.85,0.27,1.46,0.81,1.84c0.54,0.38,1.97,0.97,4.3,1.77c2.33,0.8,4.16,1.83,5.5,3.08c1.34,1.25,2.01,2.99,2.01,5.21
				c0,2.24-1.01,4.16-3.03,5.77c-2.02,1.6-4.44,2.41-7.27,2.41c-1.92,0-3.83-0.53-5.74-1.6c-1.91-1.07-3.53-2.7-4.86-4.9l6.27-2.85
				c1.41,2.44,2.88,3.66,4.39,3.66c0.69,0,1.3-0.22,1.85-0.66c0.54-0.44,0.82-0.95,0.82-1.51c0-0.72-0.31-1.27-0.94-1.65
				c-0.63-0.37-1.09-0.56-1.39-0.56c-0.12-0.14-0.85-0.42-2.18-0.85c-5.21-1.7-7.81-4.46-7.81-8.27c0-2.3,0.93-4.18,2.8-5.65
				c1.87-1.46,4.3-2.19,7.31-2.19C143.54,27.43,146.56,28.83,149.27,31.61z"/>
			<path class="st1" d="M139.7,55.47c-2.08,0-4.18-0.58-6.23-1.73c-2.05-1.15-3.81-2.92-5.23-5.26l-0.58-0.96l8.12-3.69l0.45,0.78
				c0.83,1.44,2.12,3.16,3.52,3.16c0.45,0,0.85-0.14,1.22-0.44c0.45-0.36,0.45-0.63,0.45-0.73c0-0.37-0.13-0.59-0.45-0.79
				c-0.65-0.39-0.89-0.42-0.9-0.42h-0.46l-0.21-0.25c-0.15-0.07-0.59-0.26-1.8-0.64c-5.65-1.84-8.51-4.95-8.51-9.22
				c0-2.61,1.07-4.78,3.18-6.43c2.04-1.6,4.71-2.41,7.93-2.41c3.59,0,6.88,1.51,9.77,4.48l0.87,0.9l-7.01,4.27l-0.56-0.56
				c-1.32-1.33-2.51-2-3.55-2c-0.42,0-0.77,0.11-1.06,0.33c-0.28,0.21-0.31,0.39-0.31,0.54c0,0.75,0.28,0.95,0.39,1.03
				c0.26,0.18,1.13,0.64,4.05,1.64c2.45,0.84,4.42,1.95,5.86,3.29c1.55,1.44,2.33,3.44,2.33,5.94c0,2.55-1.15,4.75-3.4,6.55
				C145.4,54.58,142.74,55.47,139.7,55.47z M130.58,48.39c1.11,1.57,2.41,2.78,3.87,3.6c1.75,0.98,3.51,1.48,5.25,1.48
				c2.62,0,4.79-0.72,6.64-2.19c1.78-1.42,2.65-3.05,2.65-4.98c0-1.95-0.55-3.41-1.7-4.48c-1.23-1.15-2.96-2.11-5.15-2.86
				c-3.25-1.12-4.15-1.62-4.55-1.9c-0.56-0.4-1.23-1.18-1.23-2.66c0-0.83,0.38-1.57,1.09-2.12c0.64-0.5,1.41-0.75,2.29-0.75
				c1.41,0,2.88,0.69,4.39,2.05l3.5-2.13c-2.27-2.02-4.71-3-7.42-3c-2.76,0-5.02,0.67-6.69,1.98c-1.63,1.28-2.42,2.86-2.42,4.86
				c0,3.36,2.33,5.76,7.12,7.32c1.28,0.41,1.89,0.65,2.23,0.83c0.42,0.08,0.92,0.29,1.55,0.67c0.93,0.56,1.43,1.42,1.43,2.51
				c0,0.6-0.21,1.49-1.19,2.29c-0.72,0.59-1.56,0.89-2.48,0.89c-1.73,0-3.3-1.11-4.78-3.39L130.58,48.39z"/>
		</g>
		<g>
			<path class="st0" d="M257.34,42.81h-18.56c0.1,1.68,0.65,3.04,1.65,4.09c1,1.05,2.16,1.57,3.5,1.57c2.38,0,4.25-1.08,5.6-3.24
				l7.11,2.36c-2.64,4.62-6.75,6.93-12.32,6.93c-4.1,0-7.36-1.24-9.78-3.72s-3.63-5.82-3.63-10.02c0-3.77,1.28-6.94,3.83-9.51
				c2.55-2.56,5.7-3.84,9.43-3.84c3.75,0,6.89,1.35,9.4,4.04c2.51,2.69,3.77,6.06,3.77,10.1V42.81z M238.84,37.6h10.47
				c-0.73-3.25-2.39-4.87-5-4.87c-1.49,0-2.73,0.42-3.71,1.27C239.63,34.85,239.04,36.05,238.84,37.6z"/>
			<path class="st1" d="M244.32,55.53c-4.36,0-7.89-1.35-10.49-4.03c-2.6-2.66-3.92-6.27-3.92-10.72c0-4.03,1.39-7.47,4.12-10.21
				c2.74-2.75,6.15-4.14,10.14-4.14c4.03,0,7.43,1.47,10.13,4.36c2.68,2.87,4.04,6.5,4.04,10.78v2.24h-18.42
				c0.2,0.95,0.61,1.74,1.23,2.4c0.81,0.85,1.72,1.26,2.77,1.26c2.03,0,3.59-0.91,4.75-2.77l0.42-0.67l9.02,2.99l-0.61,1.06
				C254.69,53.03,250.25,55.53,244.32,55.53z M244.17,28.43c-3.49,0-6.34,1.16-8.72,3.55c-2.38,2.39-3.54,5.27-3.54,8.8
				c0,3.91,1.13,7.04,3.35,9.32c2.25,2.3,5.21,3.42,9.06,3.42c4.79,0,8.34-1.76,10.8-5.38l-5.19-1.72c-1.5,2.03-3.52,3.05-6,3.05
				c-1.61,0-3.03-0.63-4.22-1.88c-1.16-1.22-1.81-2.81-1.92-4.72l-0.06-1.06h18.62v-0.24c0-3.76-1.18-6.92-3.5-9.41
				C250.5,29.65,247.67,28.43,244.17,28.43z M250.57,38.6H237.7l0.15-1.13c0.23-1.8,0.94-3.22,2.11-4.23
				c1.16-1.01,2.63-1.52,4.36-1.52c2.15,0,4.93,0.98,5.97,5.66L250.57,38.6z M240.08,36.6h7.91c-0.92-2.55-2.5-2.87-3.67-2.87
				c-1.26,0-2.26,0.34-3.05,1.03C240.72,35.23,240.33,35.84,240.08,36.6z"/>
		</g>
		<g>
			<path class="st0" d="M288.44,44.96v7.75c-2.66,1.21-4.87,1.82-6.63,1.82c-3.92,0-7.19-1.29-9.81-3.88
				c-2.62-2.58-3.94-5.81-3.94-9.69c0-3.89,1.22-7.12,3.65-9.69c2.43-2.56,5.51-3.84,9.25-3.84c2.6,0,5.13,0.61,7.57,1.82v7.33
				c-2.26-1.09-4.33-1.63-6.21-1.63c-1.74,0-3.13,0.53-4.19,1.59c-1.06,1.06-1.59,2.46-1.59,4.19c0,1.72,0.52,3.1,1.57,4.16
				c1.05,1.06,2.43,1.59,4.15,1.59C283.82,46.47,285.87,45.97,288.44,44.96z"/>
			<path class="st1" d="M281.81,55.53c-4.17,0-7.71-1.4-10.51-4.16c-2.81-2.77-4.23-6.26-4.23-10.4c0-4.14,1.32-7.63,3.92-10.38
				c2.62-2.76,5.97-4.16,9.97-4.16c2.75,0,5.44,0.65,8.01,1.92l0.56,0.28v9.54l-1.43-0.69c-2.11-1.02-4.06-1.54-5.77-1.54
				c-1.47,0-2.61,0.42-3.49,1.3c-0.87,0.87-1.3,2.01-1.3,3.49c0,1.46,0.42,2.59,1.28,3.46c0.86,0.87,1.99,1.29,3.44,1.29
				c1.42,0,3.38-0.49,5.81-1.44l1.37-0.54v9.86l-0.59,0.27C286.03,54.9,283.73,55.53,281.81,55.53z M280.96,28.43
				c-3.48,0-6.27,1.16-8.52,3.53c-2.27,2.39-3.37,5.34-3.37,9c0,3.63,1.19,6.57,3.64,8.97c2.45,2.41,5.43,3.59,9.11,3.59
				c1.48,0,3.37-0.49,5.63-1.47V46.4c-2.07,0.72-3.77,1.08-5.18,1.08c-1.99,0-3.62-0.63-4.86-1.89c-1.24-1.25-1.86-2.88-1.86-4.87
				c0-2,0.63-3.65,1.88-4.9c1.25-1.25,2.9-1.88,4.9-1.88c1.61,0,3.36,0.37,5.21,1.1v-5.16C285.41,28.92,283.2,28.43,280.96,28.43z"
				/>
		</g>
		<g>
			<path class="st0" d="M301.95,13.57h7.87v17.41c1.41-1.21,2.72-2.09,3.94-2.63s2.61-0.82,4.21-0.82c2.72,0,4.86,0.98,6.4,2.95
				c1.54,1.97,2.32,4.7,2.32,8.19v15.32h-7.81V40.03c0-1.67-0.43-3.08-1.29-4.22c-0.86-1.14-1.91-1.71-3.16-1.71
				c-1.59,0-2.76,0.66-3.5,1.97c-0.74,1.31-1.1,3.36-1.1,6.15v11.78h-7.87V13.57z"/>
			<path class="st1" d="M327.68,54.98h-9.81V40.03c0-1.47-0.35-2.65-1.09-3.62c-0.66-0.88-1.44-1.31-2.36-1.31
				c-1.23,0-2.07,0.46-2.62,1.46c-0.65,1.16-0.98,3.06-0.98,5.66v12.78h-9.87V12.57h9.87v16.35c0.88-0.63,1.72-1.13,2.53-1.49
				c1.33-0.6,2.89-0.91,4.62-0.91c3.03,0,5.45,1.12,7.19,3.33c1.68,2.14,2.53,5.1,2.53,8.81V54.98z M319.87,52.98h5.81V38.66
				c0-3.25-0.71-5.79-2.1-7.57c-1.36-1.73-3.19-2.57-5.62-2.57c-1.44,0-2.72,0.25-3.8,0.73c-1.12,0.5-2.36,1.34-3.69,2.48
				l-1.65,1.42V14.57h-5.87v38.42h5.87V42.21c0-2.99,0.4-5.16,1.23-6.63c0.91-1.62,2.42-2.48,4.37-2.48c1.58,0,2.91,0.71,3.96,2.11
				c0.99,1.31,1.49,2.94,1.49,4.83V52.98z"/>
		</g>
	</g>
	<path class="st2" d="M227.75,49.22c0.3-2.65,0.47-5.34,0.47-8.06s-0.17-5.42-0.47-8.06l-5.83-1.41c-0.62-2.18-1.45-4.26-2.48-6.23
		l3.07-5.01c-1.66-2.09-3.44-4.11-5.37-6.04c-1.93-1.93-3.95-3.71-6.04-5.37l-5,3.05c-1.96-1.03-4.05-1.86-6.25-2.49l-1.39-5.8
		c-2.65-0.3-5.34-0.47-8.06-0.47s-5.42,0.17-8.06,0.47l-1.43,5.91c-2.11,0.64-4.13,1.48-6.04,2.5l-5.17-3.18
		c-2.09,1.66-4.11,3.44-6.04,5.37s-3.71,3.95-5.37,6.04l3.17,5.19c-1.03,1.91-1.87,3.93-2.5,6.04l-5.91,1.41
		c-0.3,2.65-0.47,5.34-0.47,8.06s0.17,5.42,0.47,8.06l5.91,1.43c0.64,2.11,1.48,4.13,2.5,6.04l-3.18,5.17
		c1.66,2.09,3.44,4.11,5.37,6.04c1.93,1.93,3.95,3.71,6.04,5.37l5.19-3.17c1.91,1.03,3.93,1.87,6.04,2.5l1.41,5.91
		c2.65,0.3,5.34,0.47,8.06,0.47s5.42-0.17,8.06-0.47l1.43-5.91c2.11-0.64,4.13-1.48,6.04-2.5l5.17,3.18
		c2.09-1.66,4.11-3.44,6.04-5.37c1.93-1.93,3.71-3.95,5.37-6.04l-3.17-5.19c1.03-1.91,1.87-3.93,2.5-6.04L227.75,49.22z
		 M190.4,66.88c-9.11,0-17.11-4.74-21.68-11.89l0.88-1.72h13.99l2.13,9.16h4.68l-9.67-41.35l-14.61,28.57
		c-0.93-2.66-1.44-5.51-1.44-8.49c0-14.21,11.52-25.73,25.73-25.73c3.44,0,6.73,0.68,9.73,1.91l-15.67,2.08l1.58,6.67l10.36-1.37
		l9.26,37.16C201.39,65.02,196.11,66.88,190.4,66.88z M171.84,48.86l7.36-14.44l3.36,14.44H171.84z M210.13,57.66L201.79,24
		l6.91-0.92c4.59,4.65,7.42,11.03,7.42,18.07C216.13,47.44,213.87,53.2,210.13,57.66z"/>
	<text transform="matrix(1 0 0 1 78.7462 110.5026)" class="st0 st3 st4">En construction</text>
</g>
<g id="Calque_2">
</g>
<g id="Calque_3">
</g>
</svg>
